<?xml version="1.0" encoding="UTF-8"?>
<svg xmlns="http://www.w3.org/2000/svg" xmlns:xlink="http://www.w3.org/1999/xlink" viewBox="0 0 138.24 156.23">
  <defs>
    <style>
      .cls-1 {
        fill: url(#linear-gradient-3);
      }

      .cls-1, .cls-2, .cls-3, .cls-4, .cls-5, .cls-6, .cls-7, .cls-8, .cls-9, .cls-10, .cls-11, .cls-12, .cls-13, .cls-14, .cls-15, .cls-16, .cls-17, .cls-18, .cls-19, .cls-20, .cls-21, .cls-22, .cls-23, .cls-24 {
        fill-rule: evenodd;
      }

      .cls-1, .cls-4, .cls-5, .cls-9, .cls-25, .cls-11, .cls-18 {
        stroke: #000;
        stroke-miterlimit: 10;
      }

      .cls-2 {
        fill: url(#linear-gradient-12);
      }

      .cls-26, .cls-27 {
        fill: #fff;
      }

      .cls-28, .cls-29 {
        mix-blend-mode: hue;
      }

      .cls-28, .cls-30 {
        fill: #4aa9ff;
      }

      .cls-31 {
        fill: url(#linear-gradient-28);
      }

      .cls-3 {
        fill: url(#linear-gradient-21);
      }

      .cls-32 {
        fill: url(#linear-gradient-36);
      }

      .cls-33 {
        isolation: isolate;
      }

      .cls-4 {
        fill: url(#linear-gradient);
      }

      .cls-5 {
        fill: url(#linear-gradient-5);
      }

      .cls-34 {
        fill: url(#linear-gradient-35);
      }

      .cls-35 {
        fill: url(#linear-gradient-32);
      }

      .cls-6 {
        fill: url(#linear-gradient-15);
      }

      .cls-7 {
        fill: url(#linear-gradient-24);
      }

      .cls-8 {
        fill: url(#linear-gradient-9);
      }

      .cls-36 {
        fill: #00bc98;
      }

      .cls-9 {
        fill: url(#linear-gradient-2);
      }

      .cls-10 {
        fill: url(#linear-gradient-16);
      }

      .cls-25 {
        fill: #005444;
      }

      .cls-37 {
        fill: url(#radial-gradient);
      }

      .cls-11 {
        fill: url(#linear-gradient-4);
      }

      .cls-12 {
        fill: url(#linear-gradient-14);
      }

      .cls-38 {
        fill: url(#linear-gradient-37);
      }

      .cls-13 {
        fill: url(#linear-gradient-23);
      }

      .cls-39 {
        fill: url(#linear-gradient-31);
      }

      .cls-14 {
        fill: url(#linear-gradient-10);
      }

      .cls-15 {
        fill: url(#linear-gradient-18);
      }

      .cls-16 {
        fill: url(#linear-gradient-11);
      }

      .cls-40 {
        fill: url(#linear-gradient-25);
      }

      .cls-41 {
        clip-path: url(#clippath);
      }

      .cls-42 {
        fill: url(#linear-gradient-34);
      }

      .cls-17 {
        fill: url(#linear-gradient-19);
      }

      .cls-18 {
        fill: url(#linear-gradient-6);
      }

      .cls-19 {
        fill: url(#linear-gradient-20);
      }

      .cls-43 {
        fill: #5888a0;
      }

      .cls-44 {
        fill: url(#linear-gradient-27);
      }

      .cls-20 {
        fill: url(#linear-gradient-22);
      }

      .cls-45 {
        fill: url(#linear-gradient-33);
      }

      .cls-46 {
        fill: url(#linear-gradient-29);
      }

      .cls-47 {
        fill: url(#linear-gradient-30);
      }

      .cls-21 {
        fill: url(#linear-gradient-13);
      }

      .cls-22 {
        fill: url(#linear-gradient-7);
      }

      .cls-23 {
        fill: url(#linear-gradient-8);
      }

      .cls-27 {
        filter: url(#drop-shadow-1);
        font-family: NexaBlack, 'Nexa Black';
        font-size: 17.12px;
      }

      .cls-24 {
        fill: url(#linear-gradient-17);
      }

      .cls-48 {
        fill: url(#linear-gradient-26);
      }
    </style>
    <linearGradient id="linear-gradient" x1="58.33" y1="9.11" x2="79.92" y2="9.11" gradientUnits="userSpaceOnUse">
      <stop offset="0" stop-color="#96a2ab"/>
      <stop offset="1" stop-color="#626a6f"/>
    </linearGradient>
    <linearGradient id="linear-gradient-2" x1="117.16" y1="47.24" x2="135.61" y2="47.24" xlink:href="#linear-gradient"/>
    <linearGradient id="linear-gradient-3" x1="117.17" y1="108.96" x2="135.61" y2="108.96" xlink:href="#linear-gradient"/>
    <linearGradient id="linear-gradient-4" x1="58.28" y1="147.12" x2="79.88" y2="147.12" xlink:href="#linear-gradient"/>
    <linearGradient id="linear-gradient-5" x1="2.62" y1="108.91" x2="21.07" y2="108.91" xlink:href="#linear-gradient"/>
    <linearGradient id="linear-gradient-6" x1="2.63" y1="47.24" x2="21.08" y2="47.24" xlink:href="#linear-gradient"/>
    <linearGradient id="linear-gradient-7" x1="58.33" y1="9.11" x2="79.92" y2="9.11" gradientUnits="userSpaceOnUse">
      <stop offset="0" stop-color="#bcc5cb"/>
      <stop offset="1" stop-color="#96a2ab"/>
    </linearGradient>
    <linearGradient id="linear-gradient-8" x2="69.12" xlink:href="#linear-gradient-7"/>
    <linearGradient id="linear-gradient-9" x1="69.12" xlink:href="#linear-gradient-7"/>
    <linearGradient id="linear-gradient-10" x1="117.16" y1="47.24" x2="135.61" y2="47.24" xlink:href="#linear-gradient-7"/>
    <linearGradient id="linear-gradient-11" x1="117.16" y1="42.68" x2="135.61" y2="42.68" xlink:href="#linear-gradient-7"/>
    <linearGradient id="linear-gradient-12" x1="122.15" y1="48.15" x2="135.61" y2="48.15" xlink:href="#linear-gradient"/>
    <linearGradient id="linear-gradient-13" x1="117.17" y1="108.96" x2="135.61" y2="108.96" xlink:href="#linear-gradient-7"/>
    <linearGradient id="linear-gradient-14" x1="122.15" y1="108.05" x2="135.61" y2="108.05" gradientUnits="userSpaceOnUse">
      <stop offset="0" stop-color="#bcc5cb"/>
      <stop offset="1" stop-color="#626a6f"/>
    </linearGradient>
    <linearGradient id="linear-gradient-15" x1="117.17" y1="113.52" y2="113.52" xlink:href="#linear-gradient-14"/>
    <linearGradient id="linear-gradient-16" x1="58.28" y1="147.12" x2="79.88" y2="147.12" xlink:href="#linear-gradient-7"/>
    <linearGradient id="linear-gradient-17" x1="58.28" y1="147.12" x2="69.08" y2="147.12" gradientUnits="userSpaceOnUse">
      <stop offset="0" stop-color="#bcc5cb"/>
      <stop offset="1" stop-color="#747d83"/>
    </linearGradient>
    <linearGradient id="linear-gradient-18" x1="69.08" y1="147.12" x2="79.88" y2="147.12" xlink:href="#linear-gradient-14"/>
    <linearGradient id="linear-gradient-19" x1="2.62" y1="108.91" x2="21.07" y2="108.91" xlink:href="#linear-gradient-7"/>
    <linearGradient id="linear-gradient-20" x1="2.62" y1="108" x2="16.09" y2="108" xlink:href="#linear-gradient"/>
    <linearGradient id="linear-gradient-21" x1="2.62" y1="113.47" x2="21.07" y2="113.47" xlink:href="#linear-gradient-17"/>
    <linearGradient id="linear-gradient-22" x1="2.63" y1="47.24" x2="21.08" y2="47.24" xlink:href="#linear-gradient-7"/>
    <linearGradient id="linear-gradient-23" x1="2.63" y1="42.69" x2="21.08" y2="42.69" xlink:href="#linear-gradient-7"/>
    <linearGradient id="linear-gradient-24" x1="2.63" y1="48.15" x2="16.1" y2="48.15" xlink:href="#linear-gradient"/>
    <radialGradient id="radial-gradient" cx="317.65" cy="98.58" fx="317.65" fy="98.58" r="136.64" gradientTransform="translate(-212.93 -78.65) scale(.89)" gradientUnits="userSpaceOnUse">
      <stop offset="0" stop-color="#00d0b6"/>
      <stop offset="1" stop-color="#005d68"/>
    </radialGradient>
    <linearGradient id="linear-gradient-25" x1="127.66" y1="107.21" x2="79.37" y2="138.95" xlink:href="#linear-gradient-14"/>
    <linearGradient id="linear-gradient-26" x1="124.7" y1="24.63" x2="125.89" y2="95.79" xlink:href="#linear-gradient"/>
    <linearGradient id="linear-gradient-27" x1="68.06" y1="-6.68" x2="114.39" y2="48.87" xlink:href="#linear-gradient-7"/>
    <linearGradient id="linear-gradient-28" x1="27.17" y1="114.22" x2="70.94" y2="157.09" xlink:href="#linear-gradient-17"/>
    <linearGradient id="linear-gradient-29" x1="-3605.4" y1="24.63" x2="-3604.2" y2="95.79" gradientTransform="translate(-3591.99) rotate(-180) scale(1 -1)" xlink:href="#linear-gradient"/>
    <linearGradient id="linear-gradient-30" x1="18.35" y1="52.07" x2="55.04" y2="13.67" xlink:href="#linear-gradient-7"/>
    <linearGradient id="linear-gradient-31" x1="67.95" y1="16.92" x2="125.28" y2="56.6" gradientUnits="userSpaceOnUse">
      <stop offset="0" stop-color="#00d0b6"/>
      <stop offset="1" stop-color="#00797d"/>
    </linearGradient>
    <linearGradient id="linear-gradient-32" x1="120.66" y1="43.03" x2="117.59" y2="103.43" gradientUnits="userSpaceOnUse">
      <stop offset="0" stop-color="#00f9cf"/>
      <stop offset="1" stop-color="#00a69a"/>
    </linearGradient>
    <linearGradient id="linear-gradient-33" x1="138.16" y1="91.55" x2="79.54" y2="130.97" gradientUnits="userSpaceOnUse">
      <stop offset="0" stop-color="#00a69a"/>
      <stop offset="1" stop-color="#004054"/>
    </linearGradient>
    <linearGradient id="linear-gradient-34" x1="80.58" y1="141.2" x2="17.1" y2="106.39" gradientUnits="userSpaceOnUse">
      <stop offset="0" stop-color="#00a69a"/>
      <stop offset="1" stop-color="#00797d"/>
    </linearGradient>
    <linearGradient id="linear-gradient-35" x1="17.92" y1="31.59" x2="20.22" y2="111.45" xlink:href="#linear-gradient-31"/>
    <linearGradient id="linear-gradient-36" x1="70.65" y1="20.43" x2="18.41" y2="49.14" xlink:href="#linear-gradient-32"/>
    <linearGradient id="linear-gradient-37" x1="21.37" y1="119.6" x2="116.65" y2="119.6" xlink:href="#linear-gradient-32"/>
    <clipPath id="clippath">
      <polyline class="cls-30" points="69.04 133.51 20.88 105.73 20.88 105.89 68.97 133.64 69.04 133.68 117.21 105.87 117.21 105.56 20.88 105.56 20.88 105.7"/>
    </clipPath>
    <filter id="drop-shadow-1" filterUnits="userSpaceOnUse">
      <feOffset dx="1" dy="1"/>
      <feGaussianBlur result="blur" stdDeviation="2"/>
      <feFlood flood-color="#666" flood-opacity="1"/>
      <feComposite in2="blur" operator="in"/>
      <feComposite in="SourceGraphic"/>
    </filter>
  </defs>
  <g class="cls-33">
    <g id="badge">
      <g>
        <g>
          <polygon class="cls-4" points="58.33 16.41 69.12 16.89 79.92 16.41 69.12 1.34 58.33 16.41"/>
          <polygon class="cls-9" points="127.96 56.59 135.61 39.71 117.16 37.89 122.15 47.48 127.96 56.59"/>
          <polygon class="cls-1" points="127.96 99.61 122.15 108.72 117.17 118.31 135.61 116.49 127.96 99.61"/>
          <polygon class="cls-11" points="58.28 139.83 69.08 154.89 79.88 139.83 69.08 139.35 58.28 139.83"/>
          <polygon class="cls-5" points="10.27 99.56 2.62 116.44 21.07 118.26 16.09 108.67 10.27 99.56"/>
          <polygon class="cls-18" points="10.28 56.59 16.1 47.48 21.08 37.89 2.63 39.71 10.28 56.59"/>
        </g>
        <g>
          <polygon class="cls-22" points="69.12 16.89 58.33 16.41 69.12 1.34 79.92 16.41 69.12 16.89 69.12 16.89"/>
          <polygon class="cls-23" points="69.12 16.89 58.33 16.41 69.12 1.34 69.12 16.89 69.12 16.89"/>
          <polygon class="cls-8" points="69.12 16.89 79.92 16.41 69.12 1.34 69.12 16.89 69.12 16.89"/>
          <polygon class="cls-14" points="122.15 47.48 117.16 37.89 135.61 39.71 127.96 56.59 122.15 47.48 122.15 47.48"/>
          <polygon class="cls-16" points="122.15 47.48 117.16 37.89 135.61 39.71 122.15 47.48 122.15 47.48"/>
          <polygon class="cls-2" points="122.15 47.48 127.96 56.59 135.61 39.71 122.15 47.48 122.15 47.48"/>
          <polygon class="cls-21" points="122.15 108.72 127.96 99.61 135.61 116.49 117.17 118.31 122.15 108.72 122.15 108.72"/>
          <polygon class="cls-12" points="122.15 108.72 127.96 99.61 135.61 116.49 122.15 108.72 122.15 108.72"/>
          <polygon class="cls-6" points="122.15 108.72 117.17 118.31 135.61 116.49 122.15 108.72 122.15 108.72"/>
          <polygon class="cls-10" points="69.08 139.35 58.28 139.83 69.08 154.89 79.88 139.83 69.08 139.35 69.08 139.35"/>
          <polygon class="cls-24" points="69.08 139.35 58.28 139.83 69.08 154.89 69.08 139.35 69.08 139.35"/>
          <polygon class="cls-15" points="69.08 139.35 79.88 139.83 69.08 154.89 69.08 139.35 69.08 139.35"/>
          <polygon class="cls-17" points="16.09 108.67 10.27 99.56 2.62 116.44 21.07 118.26 16.09 108.67 16.09 108.67"/>
          <polygon class="cls-19" points="16.09 108.67 10.27 99.56 2.62 116.44 16.09 108.67 16.09 108.67"/>
          <polygon class="cls-3" points="16.09 108.67 21.07 118.26 2.62 116.44 16.09 108.67 16.09 108.67"/>
          <polygon class="cls-20" points="16.1 47.48 21.08 37.89 2.63 39.71 10.28 56.59 16.1 47.48 16.1 47.48"/>
          <polygon class="cls-13" points="16.1 47.48 21.08 37.89 2.63 39.71 16.1 47.48 16.1 47.48"/>
          <polygon class="cls-7" points="16.1 47.48 10.28 56.59 2.63 39.71 16.1 47.48 16.1 47.48"/>
        </g>
        <g>
          <polygon class="cls-25" points="128.06 112.18 128.06 44.04 69.06 9.97 10.05 44.04 10.05 112.18 69.05 146.24 128.06 112.18"/>
          <polygon class="cls-43" points="120.47 107.79 120.47 48.42 69.06 18.74 17.64 48.42 17.64 107.79 69.06 137.47 120.47 107.79"/>
          <polygon class="cls-37" points="117.19 105.89 117.19 50.32 69.06 22.53 20.93 50.32 20.93 105.89 69.06 133.68 117.19 105.89"/>
          <polygon class="cls-40" points="69.05 146.24 128.06 112.18 123.09 109.31 69.05 140.5 69.05 146.24"/>
          <polygon class="cls-48" points="123.09 46.91 123.09 109.31 128.05 112.17 128.05 44.04 123.09 46.91"/>
          <polygon class="cls-44" points="69.05 9.97 69.05 15.71 123.09 46.91 128.05 44.04 69.05 9.97"/>
          <polygon class="cls-31" points="69.05 146.24 10.05 112.18 15.02 109.31 69.05 140.5 69.05 146.24"/>
          <polygon class="cls-46" points="15.02 46.91 15.02 109.31 10.05 112.17 10.05 44.04 15.02 46.91"/>
          <polygon class="cls-47" points="69.05 9.97 69.05 15.71 15.02 46.91 10.05 44.04 69.05 9.97"/>
          <g>
            <polygon class="cls-39" points="69.06 18.74 69.06 22.53 117.19 50.32 120.47 48.42 69.06 18.74"/>
            <polygon class="cls-35" points="120.47 107.79 117.19 105.89 117.19 50.32 120.47 48.42 120.47 107.79"/>
            <polygon class="cls-45" points="120.47 107.79 117.19 105.89 69.06 133.68 69.06 137.47 120.47 107.79"/>
            <polygon class="cls-42" points="69.06 133.68 20.93 105.89 17.64 107.79 69.06 137.47 69.06 133.68"/>
            <polygon class="cls-34" points="20.93 50.32 17.64 48.42 17.64 107.79 20.93 105.89 20.93 50.32"/>
            <polygon class="cls-32" points="20.93 50.32 69.06 22.53 69.06 18.74 17.64 48.42 20.93 50.32"/>
          </g>
        </g>
        <polygon class="cls-28" points="128.05 112.13 128.05 44.08 69.12 10.06 10.19 44.08 10.19 112.13 69.12 146.15 128.05 112.13"/>
      </g>
    </g>
    <g id="logo">
      <path class="cls-26" d="M62.25,88.52c-.37-1.97-.64-3.67-.83-5.1,2.89,2.98,6.08,4.48,9.53,4.48,4.17,0,7.69-1.43,10.45-4.24,2.75-2.85,4.15-6.41,4.15-10.57,0-2.79-.68-5.39-2.03-7.73-1.09-1.89-2.53-3.4-4.3-4.51,2.21-2.14,3.33-5.26,3.33-9.32,0-3.27-1.31-5.95-3.92-7.97-2.22-1.65-5.02-2.49-8.33-2.49-9.69,0-14.6,5.82-14.6,17.31,0,1.24,.02,2.72,.07,4.38,.05,1.7,.12,3.77,.21,6.13,.05,2.27,.11,4.33,.18,6.13,.07,1.72,.11,3.15,.11,4.28,0,.98-.01,1.95-.04,2.9-.02,.95-.06,1.85-.1,2.65l-.21,2.39c-.1,1.07-.24,2.42-.43,4.04,0,0-1.91,7.85,4.54,6.14,1.35-.36,2.54-1.27,3.04-2.57,.41-1.07,.52-2.57-.32-4.55-.24-.57-.4-1.17-.51-1.77Zm4.48-41.61c1.37-1.38,2.96-2.05,4.86-2.05,1.53,0,2.72,.47,3.64,1.43,.93,.98,1.39,2.25,1.39,3.89,0,1.36-.57,2.92-1.69,4.66-1.12,1.77-2.27,2.66-3.41,2.66-.17,0-.39-.01-.67-.03-.29-.02-.58-.05-.9-.1-.36-.05-.7-.09-1.03-.11-.34-.03-.62-.04-.83-.04-.98,0-3.25,.4-3.25,4.11,0,1.02,.35,1.93,1.04,2.72,.71,.81,1.63,1.24,2.63,1.24,2.58,0,5-.65,7.21-1.94,1.94,2.04,2.89,4.73,2.89,8.19,0,2.7-.91,5.22-2.69,7.48-1.9,2.34-4.12,3.47-6.76,3.47-2.89,0-5.62-1.64-8.1-4.88v-2.94c-.1-14.52,1.81-23.86,5.67-27.75Z"/>
    </g>
    <g id="tier">
      <g>
        <polygon class="cls-38" points="21.37 105.85 69.04 133.35 116.65 105.85 21.37 105.85"/>
        <polygon class="cls-36" points="20.88 105.56 20.88 105.7 117.19 105.7 69.04 133.51 20.88 105.73 20.88 105.89 68.97 133.64 69.04 133.68 117.21 105.87 117.21 105.56 20.88 105.56"/>
        <path class="cls-36" d="M117.19,105.7H20.88v.02s48.17,27.79,48.17,27.79l48.14-27.81Zm-95.81,.14H116.65l-47.61,27.5-47.67-27.5Z"/>
      </g>
      <g class="cls-29">
        <polyline class="cls-30" points="69.04 133.51 20.88 105.73 20.88 105.89 68.97 133.64 69.04 133.68 117.21 105.87 117.21 105.56 20.88 105.56 20.88 105.7"/>
        <g class="cls-41">
          <polygon class="cls-28" points="130.2 113.43 130.2 42.78 69.01 7.46 7.83 42.78 7.83 113.43 69.01 148.76 130.2 113.43"/>
        </g>
      </g>
      <text class="cls-27" transform="translate(66.22 122.34)"><tspan x="0" y="0">I</tspan></text>
    </g>
  </g>
</svg>