<?xml version="1.0" encoding="UTF-8"?>
<svg xmlns="http://www.w3.org/2000/svg" xmlns:xlink="http://www.w3.org/1999/xlink" viewBox="0 0 138.24 156.23">
  <defs>
    <style>
      .cls-1 {
        fill: url(#linear-gradient-4);
      }

      .cls-1, .cls-2, .cls-3, .cls-4, .cls-5, .cls-6, .cls-7, .cls-8, .cls-9, .cls-10, .cls-11, .cls-12, .cls-13, .cls-14, .cls-15, .cls-16, .cls-17, .cls-18, .cls-19, .cls-20, .cls-21, .cls-22, .cls-23, .cls-24, .cls-25, .cls-26, .cls-27, .cls-28, .cls-29, .cls-30, .cls-31 {
        fill-rule: evenodd;
      }

      .cls-2 {
        fill: url(#linear-gradient-12);
      }

      .cls-32 {
        fill: url(#linear-gradient-43);
      }

      .cls-33, .cls-34, .cls-35 {
        fill: none;
        stroke: #000;
        stroke-miterlimit: 10;
      }

      .cls-34 {
        opacity: .71;
      }

      .cls-36 {
        fill: url(#linear-gradient-28);
      }

      .cls-3 {
        fill: url(#linear-gradient-38);
      }

      .cls-37 {
        fill: url(#linear-gradient-20);
      }

      .cls-38 {
        isolation: isolate;
      }

      .cls-4 {
        fill: url(#linear-gradient-35);
      }

      .cls-5 {
        fill: url(#linear-gradient-36);
      }

      .cls-6 {
        fill: url(#linear-gradient-2);
      }

      .cls-7 {
        fill: url(#linear-gradient);
      }

      .cls-8 {
        fill: url(#linear-gradient-15);
      }

      .cls-9 {
        fill: url(#linear-gradient-9);
      }

      .cls-39 {
        fill: #00bc98;
      }

      .cls-40, .cls-41, .cls-35 {
        mix-blend-mode: hue;
      }

      .cls-40, .cls-42 {
        fill: red;
      }

      .cls-10 {
        fill: url(#linear-gradient-34);
      }

      .cls-11 {
        fill: url(#linear-gradient-40);
      }

      .cls-12 {
        fill: url(#linear-gradient-6);
      }

      .cls-13 {
        fill: url(#linear-gradient-16);
      }

      .cls-43 {
        fill: url(#radial-gradient);
      }

      .cls-14 {
        fill: url(#linear-gradient-39);
      }

      .cls-15 {
        fill: url(#linear-gradient-14);
      }

      .cls-16 {
        fill: url(#linear-gradient-37);
      }

      .cls-17 {
        fill: url(#linear-gradient-5);
      }

      .cls-44 {
        filter: url(#drop-shadow-1);
      }

      .cls-44, .cls-45 {
        fill: #fff;
      }

      .cls-18 {
        fill: url(#linear-gradient-10);
      }

      .cls-19 {
        fill: url(#linear-gradient-18);
      }

      .cls-20 {
        fill: url(#linear-gradient-41);
      }

      .cls-21 {
        fill: url(#linear-gradient-32);
      }

      .cls-46 {
        fill: url(#linear-gradient-21);
      }

      .cls-35 {
        stroke-width: .25px;
      }

      .cls-22 {
        fill: #f5a000;
      }

      .cls-23 {
        fill: url(#linear-gradient-11);
      }

      .cls-47 {
        fill: url(#linear-gradient-25);
      }

      .cls-24 {
        fill: url(#linear-gradient-31);
      }

      .cls-48 {
        fill: url(#linear-gradient-24);
      }

      .cls-49 {
        fill: #5888a0;
      }

      .cls-50 {
        fill: url(#linear-gradient-22);
      }

      .cls-51 {
        fill: url(#linear-gradient-27);
      }

      .cls-52 {
        fill: #005444;
      }

      .cls-53 {
        fill: url(#linear-gradient-29);
      }

      .cls-54 {
        fill: url(#linear-gradient-30);
      }

      .cls-25 {
        fill: url(#linear-gradient-13);
      }

      .cls-26 {
        fill: url(#linear-gradient-7);
      }

      .cls-27 {
        fill: url(#linear-gradient-8);
      }

      .cls-55 {
        fill: url(#linear-gradient-23);
      }

      .cls-56 {
        fill: url(#linear-gradient-19);
      }

      .cls-28 {
        fill: url(#linear-gradient-3);
      }

      .cls-29 {
        fill: url(#linear-gradient-33);
      }

      .cls-30 {
        fill: url(#linear-gradient-17);
      }

      .cls-45 {
        filter: url(#drop-shadow-2);
        font-family: NexaBlack, 'Nexa Black';
        font-size: 17.12px;
      }

      .cls-31 {
        fill: url(#linear-gradient-42);
      }

      .cls-57 {
        fill: url(#linear-gradient-26);
      }
    </style>
    <linearGradient id="linear-gradient" x1="58.34" y1="9.11" x2="79.93" y2="9.11" gradientUnits="userSpaceOnUse">
      <stop offset="0" stop-color="#bcc5cb"/>
      <stop offset="1" stop-color="#96a2ab"/>
    </linearGradient>
    <linearGradient id="linear-gradient-2" x2="69.14" xlink:href="#linear-gradient"/>
    <linearGradient id="linear-gradient-3" x1="69.14" xlink:href="#linear-gradient"/>
    <linearGradient id="linear-gradient-4" x1="117.18" y1="47.24" x2="135.62" y2="47.24" xlink:href="#linear-gradient"/>
    <linearGradient id="linear-gradient-5" x1="117.18" y1="42.68" x2="135.62" y2="42.68" xlink:href="#linear-gradient"/>
    <linearGradient id="linear-gradient-6" x1="122.16" y1="48.15" x2="135.62" y2="48.15" gradientUnits="userSpaceOnUse">
      <stop offset="0" stop-color="#96a2ab"/>
      <stop offset="1" stop-color="#626a6f"/>
    </linearGradient>
    <linearGradient id="linear-gradient-7" x1="117.18" y1="108.96" x2="135.62" y2="108.96" xlink:href="#linear-gradient"/>
    <linearGradient id="linear-gradient-8" x1="122.16" y1="108.05" x2="135.62" y2="108.05" xlink:href="#linear-gradient-6"/>
    <linearGradient id="linear-gradient-9" x1="117.18" y1="113.52" x2="135.62" y2="113.52" gradientUnits="userSpaceOnUse">
      <stop offset="0" stop-color="#bcc5cb"/>
      <stop offset="1" stop-color="#626a6f"/>
    </linearGradient>
    <linearGradient id="linear-gradient-10" x1="58.3" y1="147.12" x2="79.89" y2="147.12" xlink:href="#linear-gradient"/>
    <linearGradient id="linear-gradient-11" x1="58.3" y1="147.12" x2="69.09" y2="147.12" gradientUnits="userSpaceOnUse">
      <stop offset="0" stop-color="#bcc5cb"/>
      <stop offset="1" stop-color="#747d83"/>
    </linearGradient>
    <linearGradient id="linear-gradient-12" x1="69.09" y1="147.12" x2="79.89" y2="147.12" xlink:href="#linear-gradient-9"/>
    <linearGradient id="linear-gradient-13" x1="2.64" y1="108.91" x2="21.08" y2="108.91" xlink:href="#linear-gradient"/>
    <linearGradient id="linear-gradient-14" x1="2.64" y1="108" x2="16.1" y2="108" xlink:href="#linear-gradient-6"/>
    <linearGradient id="linear-gradient-15" x1="2.64" y1="113.47" x2="21.08" y2="113.47" xlink:href="#linear-gradient-11"/>
    <linearGradient id="linear-gradient-16" x1="2.65" y1="47.24" x2="21.09" y2="47.24" xlink:href="#linear-gradient"/>
    <linearGradient id="linear-gradient-17" x1="2.65" y1="42.69" x2="21.09" y2="42.69" xlink:href="#linear-gradient"/>
    <linearGradient id="linear-gradient-18" x1="2.65" y1="48.15" x2="16.11" y2="48.15" xlink:href="#linear-gradient-6"/>
    <radialGradient id="radial-gradient" cx="317.66" cy="98.58" fx="317.66" fy="98.58" r="136.64" gradientTransform="translate(-212.93 -78.65) scale(.89)" gradientUnits="userSpaceOnUse">
      <stop offset="0" stop-color="#00d0b6"/>
      <stop offset="1" stop-color="#005d68"/>
    </radialGradient>
    <linearGradient id="linear-gradient-19" x1="127.68" y1="107.21" x2="79.38" y2="138.95" xlink:href="#linear-gradient-9"/>
    <linearGradient id="linear-gradient-20" x1="124.71" y1="24.63" x2="125.91" y2="95.79" xlink:href="#linear-gradient-6"/>
    <linearGradient id="linear-gradient-21" x1="68.08" y1="-6.68" x2="114.41" y2="48.87" xlink:href="#linear-gradient"/>
    <linearGradient id="linear-gradient-22" x1="27.19" y1="114.22" x2="70.96" y2="157.09" xlink:href="#linear-gradient-11"/>
    <linearGradient id="linear-gradient-23" x1="-3605.41" y1="24.63" x2="-3604.21" y2="95.79" gradientTransform="translate(-3591.99) rotate(-180) scale(1 -1)" xlink:href="#linear-gradient-6"/>
    <linearGradient id="linear-gradient-24" x1="18.36" y1="52.07" x2="55.05" y2="13.67" xlink:href="#linear-gradient"/>
    <linearGradient id="linear-gradient-25" x1="67.96" y1="16.92" x2="125.29" y2="56.6" gradientUnits="userSpaceOnUse">
      <stop offset="0" stop-color="#00d0b6"/>
      <stop offset="1" stop-color="#00797d"/>
    </linearGradient>
    <linearGradient id="linear-gradient-26" x1="120.67" y1="43.03" x2="117.6" y2="103.43" gradientUnits="userSpaceOnUse">
      <stop offset="0" stop-color="#00f9cf"/>
      <stop offset="1" stop-color="#00a69a"/>
    </linearGradient>
    <linearGradient id="linear-gradient-27" x1="138.17" y1="91.55" x2="79.55" y2="130.97" gradientUnits="userSpaceOnUse">
      <stop offset="0" stop-color="#00a69a"/>
      <stop offset="1" stop-color="#004054"/>
    </linearGradient>
    <linearGradient id="linear-gradient-28" x1="80.59" y1="141.2" x2="17.11" y2="106.39" gradientUnits="userSpaceOnUse">
      <stop offset="0" stop-color="#00a69a"/>
      <stop offset="1" stop-color="#00797d"/>
    </linearGradient>
    <linearGradient id="linear-gradient-29" x1="17.93" y1="31.59" x2="20.23" y2="111.45" xlink:href="#linear-gradient-25"/>
    <linearGradient id="linear-gradient-30" x1="70.66" y1="20.43" x2="18.42" y2="49.14" xlink:href="#linear-gradient-26"/>
    <linearGradient id="linear-gradient-31" x1="2.97" y1="82.5" x2="14.87" y2="82.5" xlink:href="#linear-gradient-6"/>
    <linearGradient id="linear-gradient-32" x1="31.98" y1="26.13" x2="41.96" y2="26.13" xlink:href="#linear-gradient"/>
    <linearGradient id="linear-gradient-33" x1="36.08" y1="130.23" x2="47.23" y2="130.23" xlink:href="#linear-gradient-9"/>
    <linearGradient id="linear-gradient-34" x1="2.97" y1="73.74" x2="14.87" y2="73.74" xlink:href="#linear-gradient"/>
    <linearGradient id="linear-gradient-35" x1="36.01" y1="26.01" x2="47.15" y2="26.01" xlink:href="#linear-gradient-6"/>
    <linearGradient id="linear-gradient-36" x1="32.05" y1="130.11" x2="42.04" y2="130.11" xlink:href="#linear-gradient-11"/>
    <linearGradient id="linear-gradient-37" x1="123.25" y1="82.5" x2="135.15" y2="82.5" xlink:href="#linear-gradient-6"/>
    <linearGradient id="linear-gradient-38" x1="90.98" y1="130.18" x2="102.13" y2="130.18" xlink:href="#linear-gradient-11"/>
    <linearGradient id="linear-gradient-39" x1="96.21" y1="26.18" x2="106.2" y2="26.18" xlink:href="#linear-gradient-6"/>
    <linearGradient id="linear-gradient-40" x1="123.25" y1="73.74" x2="135.15" y2="73.74" xlink:href="#linear-gradient"/>
    <linearGradient id="linear-gradient-41" x1="96.17" y1="130.07" x2="106.16" y2="130.07" xlink:href="#linear-gradient-9"/>
    <linearGradient id="linear-gradient-42" x1="91.02" y1="26.07" x2="102.17" y2="26.07" xlink:href="#linear-gradient"/>
    <filter id="drop-shadow-1" filterUnits="userSpaceOnUse">
      <feOffset dx="1" dy="1"/>
      <feGaussianBlur result="blur" stdDeviation="1"/>
      <feFlood flood-color="#666" flood-opacity=".5"/>
      <feComposite in2="blur" operator="in"/>
      <feComposite in="SourceGraphic"/>
    </filter>
    <linearGradient id="linear-gradient-43" x1="21.39" y1="119.6" x2="116.66" y2="119.6" xlink:href="#linear-gradient-26"/>
    <filter id="drop-shadow-2" filterUnits="userSpaceOnUse">
      <feOffset dx="1" dy="1"/>
      <feGaussianBlur result="blur-2" stdDeviation="2"/>
      <feFlood flood-color="#666" flood-opacity="1"/>
      <feComposite in2="blur-2" operator="in"/>
      <feComposite in="SourceGraphic"/>
    </filter>
  </defs>
  <g class="cls-38">
    <g id="badge">
      <polygon class="cls-33" points="69.14 1.34 58.76 15.82 47 22.61 36.01 20.86 32.03 31.25 20.42 37.96 2.61 39.71 9.97 55.88 9.97 69.49 2.97 78.12 9.97 86.75 9.97 100.22 2.64 116.44 20.3 118.19 32.1 125 36.08 135.38 47.05 133.63 58.66 140.33 69.09 154.89 79.56 140.29 91.13 133.6 102.18 135.34 106.1 124.97 117.71 118.26 135.62 116.49 128.16 100.02 128.16 86.74 135.15 78.12 128.16 69.51 128.16 56.17 135.62 39.71 117.68 37.94 106.13 31.27 102.17 20.91 91.15 22.67 79.61 15.96 69.14 1.34"/>
      <g>
        <polygon class="cls-7" points="69.14 16.89 58.34 16.41 69.14 1.34 79.93 16.41 69.14 16.89 69.14 16.89"/>
        <polygon class="cls-6" points="69.14 16.89 58.34 16.41 69.14 1.34 69.14 16.89 69.14 16.89"/>
        <polygon class="cls-28" points="69.14 16.89 79.93 16.41 69.14 1.34 69.14 16.89 69.14 16.89"/>
        <polygon class="cls-1" points="122.16 47.48 117.18 37.89 135.62 39.71 127.97 56.59 122.16 47.48 122.16 47.48"/>
        <polygon class="cls-17" points="122.16 47.48 117.18 37.89 135.62 39.71 122.16 47.48 122.16 47.48"/>
        <polygon class="cls-12" points="122.16 47.48 127.97 56.59 135.62 39.71 122.16 47.48 122.16 47.48"/>
        <polygon class="cls-26" points="122.16 108.72 127.98 99.61 135.62 116.49 117.18 118.31 122.16 108.72 122.16 108.72"/>
        <polygon class="cls-27" points="122.16 108.72 127.98 99.61 135.62 116.49 122.16 108.72 122.16 108.72"/>
        <polygon class="cls-9" points="122.16 108.72 117.18 118.31 135.62 116.49 122.16 108.72 122.16 108.72"/>
        <polygon class="cls-18" points="69.09 139.35 58.3 139.83 69.09 154.89 79.89 139.83 69.09 139.35 69.09 139.35"/>
        <polygon class="cls-23" points="69.09 139.35 58.3 139.83 69.09 154.89 69.09 139.35 69.09 139.35"/>
        <polygon class="cls-2" points="69.09 139.35 79.89 139.83 69.09 154.89 69.09 139.35 69.09 139.35"/>
        <polygon class="cls-25" points="16.1 108.67 10.29 99.56 2.64 116.44 21.08 118.26 16.1 108.67 16.1 108.67"/>
        <polygon class="cls-15" points="16.1 108.67 10.29 99.56 2.64 116.44 16.1 108.67 16.1 108.67"/>
        <polygon class="cls-8" points="16.1 108.67 21.08 118.26 2.64 116.44 16.1 108.67 16.1 108.67"/>
        <polygon class="cls-13" points="16.11 47.48 21.09 37.89 2.65 39.71 10.29 56.59 16.11 47.48 16.11 47.48"/>
        <polygon class="cls-30" points="16.11 47.48 21.09 37.89 2.65 39.71 16.11 47.48 16.11 47.48"/>
        <polygon class="cls-19" points="16.11 47.48 10.29 56.59 2.65 39.71 16.11 47.48 16.11 47.48"/>
      </g>
      <g>
        <polygon class="cls-34" points="128.11 112.23 128.11 44.06 69.07 9.97 10.03 44.06 10.03 112.23 69.07 146.32 128.11 112.23"/>
        <g>
          <polygon class="cls-52" points="128.16 112.23 128.16 43.99 69.07 9.87 9.97 43.99 9.97 112.22 69.07 146.34 128.16 112.23"/>
          <polygon class="cls-49" points="120.48 107.79 120.48 48.42 69.07 18.74 17.66 48.42 17.66 107.79 69.07 137.47 120.48 107.79"/>
          <polygon class="cls-43" points="117.2 105.89 117.2 50.32 69.07 22.53 20.94 50.32 20.94 105.89 69.07 133.68 117.2 105.89"/>
          <polygon class="cls-56" points="69.07 146.24 128.08 112.18 123.11 109.31 69.07 140.5 69.07 146.24"/>
          <polygon class="cls-37" points="123.11 46.91 123.11 109.31 128.07 112.17 128.07 44.04 123.11 46.91"/>
          <polygon class="cls-46" points="69.07 9.97 69.07 15.71 123.11 46.91 128.07 44.04 69.07 9.97"/>
          <polygon class="cls-50" points="69.07 146.24 10.06 112.18 15.03 109.31 69.07 140.5 69.07 146.24"/>
          <polygon class="cls-55" points="15.03 46.91 15.03 109.31 10.07 112.17 10.07 44.04 15.03 46.91"/>
          <polygon class="cls-48" points="69.07 9.97 69.07 15.71 15.03 46.91 10.07 44.04 69.07 9.97"/>
          <g>
            <polygon class="cls-47" points="69.07 18.74 69.07 22.53 117.2 50.32 120.48 48.42 69.07 18.74"/>
            <polygon class="cls-57" points="120.48 107.79 117.2 105.89 117.2 50.32 120.48 48.42 120.48 107.79"/>
            <polygon class="cls-51" points="120.48 107.79 117.2 105.89 69.07 133.68 69.07 137.47 120.48 107.79"/>
            <polygon class="cls-36" points="69.07 133.68 20.94 105.89 17.66 107.79 69.07 137.47 69.07 133.68"/>
            <polygon class="cls-53" points="20.94 50.32 17.66 48.42 17.66 107.79 20.94 105.89 20.94 50.32"/>
            <polygon class="cls-54" points="20.94 50.32 69.07 22.53 69.07 18.74 17.66 48.42 20.94 50.32"/>
          </g>
        </g>
      </g>
      <g>
        <polygon class="cls-22" points="14.87 78.12 10.08 69.36 2.97 78.12 10.08 86.88 14.87 78.12 14.87 78.12"/>
        <polygon class="cls-22" points="41.96 31.17 47.15 22.64 36.01 20.86 31.98 31.4 41.96 31.17 41.96 31.17"/>
        <polygon class="cls-22" points="42.04 125.07 32.05 124.84 36.08 135.38 47.23 133.6 42.04 125.07 42.04 125.07"/>
        <polygon class="cls-24" points="14.87 78.12 10.08 86.88 2.97 78.12 14.87 78.12 14.87 78.12"/>
        <polygon class="cls-21" points="41.96 31.17 31.98 31.4 36.01 20.86 41.96 31.17 41.96 31.17"/>
        <polygon class="cls-29" points="42.04 125.07 47.23 133.6 36.08 135.38 42.04 125.07 42.04 125.07"/>
        <polygon class="cls-10" points="14.87 78.12 10.08 69.36 2.97 78.12 14.87 78.12 14.87 78.12"/>
        <polygon class="cls-4" points="41.96 31.17 47.15 22.64 36.01 20.86 41.96 31.17 41.96 31.17"/>
        <polygon class="cls-5" points="42.04 125.07 32.05 124.84 36.08 135.38 42.04 125.07 42.04 125.07"/>
        <polygon class="cls-22" points="123.25 78.12 128.04 69.36 135.15 78.12 128.04 86.88 123.25 78.12 123.25 78.12"/>
        <polygon class="cls-22" points="96.17 125.03 106.16 124.8 102.13 135.34 90.98 133.56 96.17 125.03 96.17 125.03"/>
        <polygon class="cls-22" points="96.21 31.22 91.02 22.69 102.17 20.91 106.2 31.45 96.21 31.22 96.21 31.22"/>
        <polygon class="cls-16" points="123.25 78.12 128.04 86.88 135.15 78.12 123.25 78.12 123.25 78.12"/>
        <polygon class="cls-3" points="96.17 125.03 90.98 133.56 102.13 135.34 96.17 125.03 96.17 125.03"/>
        <polygon class="cls-14" points="96.21 31.22 106.2 31.45 102.17 20.91 96.21 31.22 96.21 31.22"/>
        <polygon class="cls-11" points="123.25 78.12 128.04 69.36 135.15 78.12 123.25 78.12 123.25 78.12"/>
        <polygon class="cls-20" points="96.17 125.03 106.16 124.8 102.13 135.34 96.17 125.03 96.17 125.03"/>
        <polygon class="cls-31" points="96.21 31.22 91.02 22.69 102.17 20.91 96.21 31.22 96.21 31.22"/>
      </g>
      <polygon class="cls-40" points="69.14 1.34 58.76 15.82 47 22.61 36.01 20.86 32.03 31.25 20.42 37.96 2.61 39.71 9.97 55.88 9.97 69.49 2.97 78.12 9.97 86.75 9.97 100.22 2.64 116.44 20.3 118.19 32.1 125 36.08 135.38 47.05 133.63 58.66 140.33 69.09 154.89 79.56 140.29 91.13 133.6 102.18 135.34 106.1 124.97 117.71 118.26 135.62 116.49 128.16 100.02 128.16 86.74 135.15 78.12 128.16 69.51 128.16 56.17 135.62 39.71 117.68 37.94 106.13 31.27 102.17 20.91 91.15 22.67 79.61 15.96 69.14 1.34"/>
      <polygon class="cls-35" points="69.14 1.34 58.76 15.82 47 22.61 36.01 20.86 32.03 31.25 20.42 37.96 2.61 39.71 9.97 55.88 9.97 69.49 2.97 78.12 9.97 86.75 9.97 100.22 2.64 116.44 20.3 118.19 32.1 125 36.08 135.38 47.05 133.63 58.66 140.33 69.09 154.89 79.56 140.29 91.13 133.6 102.18 135.34 106.1 124.97 117.71 118.26 135.62 116.49 128.16 100.02 128.16 86.74 135.15 78.12 128.16 69.51 128.16 56.17 135.62 39.71 117.68 37.94 106.13 31.27 102.17 20.91 91.15 22.67 79.61 15.96 69.14 1.34"/>
    </g>
    <g id="logo">
      <path class="cls-44" d="M82.51,48.15c-3.98,0-7.31,3.19-10.15,9.74-.88,2-1.6,3.96-2.16,5.85-.52-2.2-1.07-4.02-1.64-5.49-2.33-6.34-5.65-9.55-9.84-9.55-2.05,0-3.76,.57-5.08,1.69-1.4,1.18-2.11,2.83-2.11,4.88,0,.68,.09,1.34,.26,1.97l.5,1.84,1.67-.92c1.11-.61,2.24-.91,3.46-.91,2.66,0,5.03,2.46,7.05,7.3,1.74,4.23,2.63,8.33,2.63,12.18,0,1.52-.31,3.67-.92,6.4-.32,1.48-.57,2.8-.74,3.94-.17,1.18-.26,2.13-.26,2.89,0,2.36,1.61,3.76,4.31,3.76,3,0,4.79-1.61,4.79-4.31,0-.74-.06-1.62-.18-2.71-.12-1.06-.35-2.33-.67-3.76-.27-1.33-.46-2.5-.56-3.47-.11-.96-.16-1.77-.16-2.4,0-5.78,1.48-10.79,4.4-14.92,1.28-1.86,2.52-3.13,3.65-3.78,.76-.4,1.54-.79,2.34-1.17,.83-.39,1.67-.8,2.5-1.21l.56-.28,.62-1.85v-.24c0-4.94-2.97-5.48-4.24-5.48Z"/>
    </g>
    <g id="tier">
      <g>
        <polygon class="cls-32" points="21.39 105.85 69.06 133.35 116.66 105.85 21.39 105.85"/>
        <polygon class="cls-39" points="20.89 105.56 20.89 105.7 117.2 105.7 69.06 133.51 20.89 105.73 20.89 105.89 68.99 133.64 69.06 133.68 117.22 105.87 117.22 105.56 20.89 105.56"/>
        <path class="cls-39" d="M117.2,105.7H20.89v.02s48.17,27.79,48.17,27.79l48.14-27.81Zm-95.81,.14H116.66l-47.61,27.5-47.67-27.5Z"/>
      </g>
      <g class="cls-41">
        <polygon class="cls-42" points="21.39 105.85 69.06 133.35 116.66 105.85 21.39 105.85"/>
        <polygon class="cls-42" points="20.89 105.56 20.89 105.7 117.2 105.7 69.06 133.51 20.89 105.73 20.89 105.89 68.99 133.64 69.06 133.68 117.22 105.87 117.22 105.56 20.89 105.56"/>
        <path class="cls-42" d="M117.2,105.7H20.89v.02s48.17,27.79,48.17,27.79l48.14-27.81Zm-95.81,.14H116.66l-47.61,27.5-47.67-27.5Z"/>
      </g>
    </g>
    <g id="number">
      <text class="cls-45" transform="translate(62.6 122.34)"><tspan x="0" y="0">V</tspan></text>
    </g>
  </g>
</svg>